<?xml version="1.0" encoding="utf-8"?>
<!-- Generator: Adobe Illustrator 16.0.0, SVG Export Plug-In . SVG Version: 6.00 Build 0)  -->
<!DOCTYPE svg PUBLIC "-//W3C//DTD SVG 1.1//EN" "http://www.w3.org/Graphics/SVG/1.1/DTD/svg11.dtd">
<svg version="1.1" id="Layer_1" xmlns="http://www.w3.org/2000/svg" xmlns:xlink="http://www.w3.org/1999/xlink" x="0px" y="0px"
	 width="88.912px" height="87.953px" viewBox="0 0 88.912 87.953" enable-background="new 0 0 88.912 87.953" xml:space="preserve">
<g>
	<g>
		<g>
			<rect x="4.872" y="28.88" fill="#FFFFFF" width="3.044" height="58.408"/>
			<rect x="80.082" y="28.88" fill="#FFFFFF" width="3.046" height="58.408"/>
			<g>
				<rect y="26.748" fill="#CB8456" width="88.912" height="6.372"/>
				<rect y="35.139" fill="#CB8456" width="88.912" height="6.371"/>
				<rect y="43.527" fill="#CB8456" width="88.912" height="6.373"/>
				<rect y="56.241" fill="#CB8456" width="88.912" height="3.712"/>
			</g>
		</g>
		<g>
			<g>
				<g>
					<path fill="#EB6643" d="M67.244,20.347h-0.006c-0.223-0.594-1.04-2.293-3.324-2.883l-8.926-3.354
						c-0.005-0.02-0.005-0.039-0.007-0.059c-0.002-0.011,0.001-0.02,0.001-0.029l-0.056-0.021l-0.115,0.043l-0.115-0.043
						l-0.056,0.021c0,0.01,0.005,0.019,0.001,0.029c-0.001,0.02-0.001,0.039-0.006,0.059l-8.928,3.354
						c-2.283,0.59-3.102,2.289-3.324,2.883l4.07,8.294l-0.586,17.856h18.275l-0.695-7.964l0.172-7.996L67.244,20.347z"/>
					<path opacity="0.1" fill="#1D1D1B" d="M46.454,28.641l-0.586,17.856h3.429c-0.802-3.128-1.992-16.174-2.317-17.354
						L46.454,28.641z"/>
					<path fill="#CD9A2B" d="M45.868,47.822c0.042,0,0.079,0.002,0.121,0.002C45.925,47.824,45.878,47.822,45.868,47.822z"/>
					<path fill="#EAB99F" d="M50.409,8.414c0,2.589,2.729,5.632,5.316,5.632s4.684-2.101,4.684-4.691V3.688h-10.05L50.409,8.414z"/>
					<path fill="#EAB99F" d="M52.369,16.566c0,1.185,0.764,2.188,1.826,2.548c2.301,0.312,2.64-0.401,3-0.681
						c0.468-0.483,0.755-1.143,0.755-1.867v-6.356h-5.581V16.566z"/>
					<path fill="#CD9A2B" d="M49.96,3.621V7.29c0,0,0.157,4.025,2.4,5.198l-0.407-3.077c0,0-1.271,0.174-1.271-2.421
						c0-0.947,0.379-0.973,0.674-0.973c0.398,0,0.698,0.599,0.698,0.599H52.8V5.169l-0.001-0.01l0.028,0.01
						c0,0-0.051-1.484,1.482-1.484h6.1c0,0,1.162-0.064,1.162-3.655h-7.176C54.396,0.03,49.96-0.57,49.96,3.621z"/>
					<path fill="#CD9A2B" d="M53.831,13.169c1.96,2.046,4.119,0.833,4.119,0.833v-0.533C56.106,14.534,53.831,13.169,53.831,13.169z
						"/>
					<path opacity="0.1" fill="#010101" d="M58.281,8.78h-1.244c0.847,1.246,1.646,0.132,1.646,0.132l-0.5-3.426L58.281,8.78z"/>
				</g>
				<path fill="#6193B2" d="M45.868,52.215c0,2.569,2.082,4.651,4.649,4.651h10.504c2.567,0,4.651-2.082,4.651-4.651v-5.718H45.868
					V52.215z"/>
				<path opacity="0.1" fill="#1D1D1B" d="M63.368,52.244c-2.121-0.009-4.238,0.155-6.357,0.133
					c-4.117-0.043-7.998-1.017-10.421-4.461c-0.184-0.022-0.364-0.048-0.548-0.07c-0.059-0.008-0.115-0.02-0.174-0.03v4.719
					c0,2.394,1.938,4.333,4.327,4.333h11.149c2.391,0,4.328-1.939,4.328-4.333v-0.339C64.891,52.267,64.094,52.25,63.368,52.244z"/>
				<path fill="#403F3E" d="M71.07,85.053l-4.238-1.796h-4.066c0,0-0.897,1.803-0.587,3.834h11.311
					C73.489,87.091,73.333,85.289,71.07,85.053z"/>
				<path fill="#403F3E" d="M58.281,85.053l-2.82-1.796h-3.783c0,0-0.926,1.803-0.604,3.834h9.705
					C60.779,87.091,60.618,85.289,58.281,85.053z"/>
				<polygon fill="#EAB99F" points="67.244,20.347 62.886,28.216 64.664,41.293 67.768,52.284 71.258,52.284 69.23,39.542 				"/>
				<path fill="#EB6643" d="M62.771,27.943l0.546,3.447c0.1-0.044,0.174-0.105,0.291-0.132c1.55-0.352,4.164-0.646,5.725-0.924
					l-2.089-9.987L62.771,27.943z"/>
				<path opacity="0.1" fill="#1D1D1B" d="M65.401,41.082c0,0-0.691-4.001-1.724-7.039l0.986,7.251l3.104,10.99h2.608
					c-0.024-0.036-0.056-0.068-0.079-0.111C68.644,49.3,65.401,41.082,65.401,41.082z"/>
				<path fill="#EB6643" d="M40.59,30.615c0.028,0.005,3.989,0.774,5.646,1.069l0.61-2.698l-4.462-8.639L40.59,30.615z"/>
				<path fill="#EAB99F" d="M39.853,38.783l4.959,0.072l1.165-7.25c-1.687-0.254-3.367-0.549-5.039-0.92L39.853,38.783z"/>
				<path fill="#EAB99F" d="M71.258,52.284h-2.689l-0.482,4.583c0,0,3.01,0,4.026,0s0.935-1.12,0.854-1.852
					C72.886,54.284,71.258,52.284,71.258,52.284z"/>
				<path fill="#6193B2" d="M65.673,46.498c-1.966,0-3.559,1.659-3.559,3.707v33.053h5.055l2.062-33.053
					C69.23,48.157,67.637,46.498,65.673,46.498z"/>
				<path opacity="0.1" fill="#1D1D1B" d="M62.67,48.239c-0.347,0.57-0.556,1.241-0.556,1.966v33.053h2.747
					c-0.354-9.333-1.351-18.636-1.778-27.963C62.543,52.991,62.262,50.661,62.67,48.239z"/>
				<path fill="#6193B2" d="M54.563,46.498c-1.964,0-3.558,1.659-3.558,3.707v33.053h5.049l2.068-33.053
					C58.122,48.157,56.527,46.498,54.563,46.498z"/>
				<path opacity="0.1" fill="#1D1D1B" d="M52.682,47.061c-1.004,0.655-1.677,1.815-1.677,3.144v33.053h3.034
					c-0.723-7.575-0.831-15.161-1.461-22.742C52.265,56.725,49.964,49.982,52.682,47.061z"/>
			</g>
			<path fill="#EAB99F" d="M39.794,39.471c-0.03,1.271,0.821,1.855,2.265,2.312l8.655,3.871c0.394-2.031,0.711-3.459,0.711-3.459
				L40.31,35.12L39.794,39.471z"/>
			<path fill="#CD9A2B" d="M57.795,11.354c-2.601,0.011-4.698,0.117-5.005-5.453h-0.762L51.93,9.403c0,0,0.584,5.622,5.349,5.712
				c4.308,0.081,3.126-6.306,3.126-6.306S60.794,11.337,57.795,11.354z"/>
			<path fill="#CD9A2B" d="M57.937,9.878h-1.249c-0.938,0-1.696,0.783-1.696,1.748v0.484c0,0.965,0.759,1.747,1.696,1.747h1.249
				c0.938,0,1.698-0.782,1.698-1.747v-0.484C59.635,10.662,58.874,9.878,57.937,9.878z"/>
			<path fill="#EFBA9C" d="M57.671,12.239c0.675,0,1.22,0.029,1.22-0.768h-2.439C56.451,12.268,56.998,12.239,57.671,12.239z"/>
		</g>
		<g>
			<polygon fill="#4B4B4A" points="49.339,47.775 69.854,47.775 72.821,34.172 52.304,34.172 			"/>
			<rect x="45.629" y="46.539" fill="#4B4B4A" width="7.17" height="1.236"/>
		</g>
	</g>
	<g>
		<g>
			<path fill="#623F3C" d="M21.182,5.474h-2.641c-2.434,0-4.408,1.975-4.408,4.409l-0.859,14.658c0,1.733,1.913,3.139,3.646,3.139
				h5.531c1.732,0,3.646-1.405,3.646-3.139L25.589,9.883C25.589,7.449,23.615,5.474,21.182,5.474z"/>
			<path fill="#C29175" d="M16.059,15.046c0,2.284,1.852,4.137,4.135,4.137s4.135-1.853,4.135-4.137V10.05h-8.27V15.046z"/>
			<path fill="#C29175" d="M17.231,21.316c0,1.36,1.103,2.464,2.464,2.464c1.359,0,2.463-1.104,2.463-2.464V15.8h-4.927V21.316z"/>
			<polygon fill="#623F3C" points="14.885,16.365 16.646,18.594 17.222,19.789 17.809,8.817 15.348,9.881 			"/>
			<path fill="#623F3C" d="M16.25,10.828l1.385,0.528c0,0-0.044-1.31,1.309-1.31V9.288H16.25V10.828z"/>
			<path opacity="0.1" fill="#010101" d="M18.726,18.441c1.633,1.703,3.433,0.692,3.433,0.692V18.69
				C20.621,19.577,18.726,18.441,18.726,18.441z"/>
			<path opacity="0.1" fill="#010101" d="M22.184,15.068h-1.141c0.775,1.142,1.506,0.122,1.506,0.122l-0.457-3.137L22.184,15.068z"
				/>
			<path fill="#C3DEEE" d="M13.115,42.163c0,0-3.072,8.154-3.016,11.563c0.07,4.318,2.432,5.222,7.879,5.222h4.57
				c5.072,0,7.154-1.797,7.193-5.228c0.048-4.166-3.166-11.558-3.166-11.558H13.115z"/>
			<path opacity="0.1" fill="#010101" d="M22.283,51.798c-0.031,0.014-0.063,0.021-0.095,0.034c-0.349,0.637-0.989,1.091-1.905,1.04
				c-3.488-0.19-6.49-1.576-9.618-2.898c-0.296,1.439-0.58,2.872-0.565,3.752c0.07,4.318,2.432,5.222,7.879,5.222h4.57
				c5.072,0,7.154-1.797,7.193-5.229c0.02-1.634-0.585-3.876-1.18-6.146C26.76,49.422,24.719,50.744,22.283,51.798z"/>
			<path fill="#EB6643" d="M29.727,24.162h0.008c0,0-0.319-2.055-2.461-2.702l-4.877-1.306c-0.1,0.378-5.56,0.059-5.549-0.04
				l-4.686,1.319c-1.719,0.446-2.468,1.857-2.714,2.454l-0.731,3.726c0.281,0.094,3.721,4.62,3.721,4.62l0.678,9.93
				c0,0-0.291,0.681-0.703,1.973c5.017,0.01,10.172,0.539,15.188,0.61c-0.494-1.41-1.023-2.583-1.023-2.583l-0.211-8.34
				c0.765-0.472,1.285-1.369,1.285-2.395v-0.189c0,0-0.056-0.73-0.182-1.7c1.451-0.854,2.223-1.324,2.867-1.664L29.727,24.162z"/>
			<path fill="#C29175" d="M17.223,20.015l-4.35,1.22c1.822,4.313,12.525,2.83,14.4,0.225l-5.113-1.464
				C22.06,20.374,17.212,20.113,17.223,20.015z"/>
			<path opacity="0.1" fill="#010101" d="M12.441,32.29l0.674,9.873c0,0-0.291,0.681-0.703,1.973
				c0.612,0.001,1.227,0.011,1.842,0.025c-0.063-1.857-0.187-3.711-0.34-5.566C13.73,36.385,13.781,34.116,12.441,32.29z"/>
			<path opacity="0.1" fill="#010101" d="M23.532,33.939c0.11,0.054,0.214,0.12,0.313,0.191c0.951,0.17,1.618,0.874,1.602,2.144
				c-0.043,3.133-1.559,5.663-1.467,8.402c0.684,0.012,3.619,0.069,3.619,0.069c-0.494-1.41-1.023-2.583-1.023-2.583l-0.211-8.34
				c0.765-0.472,1.285-1.369,1.285-2.395v-0.142c-0.988,0.967-2.057,1.824-3.336,2.431C24.049,33.843,23.787,33.911,23.532,33.939z"
				/>
		</g>
		<path fill="#C29175" d="M17.436,55.127l3.429,19.514l-1.921,9.146c0,0-0.481,3.605,0.859,3.986c2.303,0.654,4.236-0.43,4.49-4.113
			v-9.02l0.951-15.213C25.244,59.428,24.801,48.141,17.436,55.127z"/>
		<path opacity="0.1" fill="#010101" d="M17.436,55.127l0.07,0.459c0.294-0.005,0.588,0.116,0.809,0.397
			c0.482,0.021,0.977,0.202,1.426,0.607c3.852,3.475,4.086,8.832,4.051,13.679c-0.023,3.171-0.276,3.511-0.184,6.68
			c0.072,2.496,0.507,4.93,0.61,7.397c0.031-0.218,0.058-0.444,0.075-0.687v-9.02l0.951-15.213
			C25.244,59.428,24.801,48.141,17.436,55.127z"/>
		<path fill="#414140" d="M23.242,82.971c-1.354,0.92-3.741,1.115-3.982-0.775l-0.316,1.592c0,0-0.481,3.605,0.859,3.986
			c2.303,0.654,4.236-0.43,4.49-4.113v-1.686C24.002,82.349,23.66,82.688,23.242,82.971z"/>
		<path fill="#EB6643" d="M30.336,27.875l-3.807,2.058l1.8,8.243l-6.976,4.785l1.795,2.159l7.611-3.395
			c0.996-0.495,1.809-1.236,1.61-2.323L30.336,27.875z"/>
		<path fill="#EB6643" d="M13.033,30.172l-4.219-3.096L6.58,39.402c-0.199,1.087,0.615,1.828,1.61,2.323l8.155,4.063l2.109-2.309
			l-7.529-5.097L13.033,30.172z"/>
		<path opacity="0.1" fill="#010101" d="M8.589,32.385c0.593-4.705,0.859-8.498,0.859-8.498l-1.129,5.856L6.58,39.402
			c-0.199,1.087,0.615,1.828,1.61,2.323l8.155,4.063l1.214-1.328c-2.055-1.114-7.346-4.295-9.161-5.775
			C7.98,38.342,8.178,36.113,8.589,32.385z"/>
		<path opacity="0.1" fill="#010101" d="M31.877,36.609c-0.051,2.964-1.142,3.027-1.742,3.388c-2.62,1.576-7.135,3.197-8.127,3.751
			l1.141,1.372l7.611-3.395c0.996-0.495,1.809-1.236,1.61-2.323L31.877,36.609z"/>
		<path fill="#EB6643" d="M25.804,24.704c0,0-12.028,0.392-12.028,1.902l-0.214,4.793c0,1.512,1.638,2.749,3.019,2.749h8.588
			c1.382,0,2.512-1.237,2.512-2.749v-0.189C27.68,31.209,27.185,24.704,25.804,24.704z"/>
		<path opacity="0.1" fill="#010101" d="M26.379,32.427c-1.152,1.101-2.655,1.544-4.193,1.721h2.982
			c1.382,0,2.512-1.237,2.512-2.749v-0.189c0,0-0.021-0.272-0.065-0.705C27.351,31.221,26.948,31.884,26.379,32.427z"/>
		<path fill="#C29175" d="M34.392,68.28l-5.627-13.914c0,0-1.531-3.367-2.668-4.257c-1.137-0.889-4.301-3.365-7.371-0.828
			c-4.024,3.325-0.917,7.88-0.917,7.88s-0.971-1.851,2.293-1.524c0.957,0.095,5.143,5.558,5.143,5.558l6.734,9.119l3.115,8.198
			c1.778,3.176,4.215,3.771,6.604,3.049c1.678-0.509-1.623-4.573-1.623-4.573L34.392,68.28z"/>
		<path fill="#414140" d="M39.564,76.246c0.061,0.442,0.061,0.876-0.055,1.274c-0.642,2.237-3.441,1.313-4.841,0.034l0.425,0.957
			c1.777,3.176,4.215,3.771,6.604,3.049c1.678-0.509-1.623-4.573-1.623-4.573L39.564,76.246z"/>
		<path fill="#C29175" d="M21.796,42.747l-3.587,0.949l-1.863,2.092c2.298,1.388,4.275,0,4.275,0l2.911,0.941
			c2.286,0.156,2.06-0.941,2.06-0.941L21.796,42.747z"/>
		<path opacity="0.1" fill="#010101" d="M21.063,44.68c-0.104-0.114-0.209-0.229-0.313-0.344c-0.815,0.057-1.761,0.66-2.545,0.89
			c-0.492,0.144-0.915,0.077-1.261-0.109l-0.598,0.671c2.298,1.388,4.275,0,4.275,0l2.911,0.941
			c0.082,0.006,0.153,0.006,0.229,0.009c-0.588-0.297-1.162-0.656-1.722-1.119C21.722,45.355,21.277,45.046,21.063,44.68z"/>
		<path fill="#C29175" d="M20.846,42.364l-1.556-0.745c-0.366-0.176-0.799-0.143-1.135,0.087l-2.54,1.732
			c0,0,1.601,1.345,2.863,0.748c1.262-0.598,2.66-0.968,2.66-0.968S21.641,42.784,20.846,42.364z"/>
	</g>
</g>
</svg>
