<?xml version="1.0" encoding="utf-8"?>
<!-- Generator: Adobe Illustrator 16.0.0, SVG Export Plug-In . SVG Version: 6.00 Build 0)  -->
<!DOCTYPE svg PUBLIC "-//W3C//DTD SVG 1.1//EN" "http://www.w3.org/Graphics/SVG/1.1/DTD/svg11.dtd">
<svg version="1.1" id="Layer_1" xmlns="http://www.w3.org/2000/svg" xmlns:xlink="http://www.w3.org/1999/xlink" x="0px" y="0px"
	 width="10.984px" height="15.039px" viewBox="50.602 59.672 10.984 15.039" enable-background="new 50.602 59.672 10.984 15.039"
	 xml:space="preserve">
<g>
	<g>
		<g>
			<g>
				<polygon fill="#795954" points="55.227,70.328 55.031,74.711 56.578,74.711 56.375,70.328 				"/>
				<path fill="#795954" d="M55.891,70.328h0.484c0.016-0.977,1.164-1.719,1.164-1.719C56.336,68.773,55.891,70.328,55.891,70.328z"
					/>
				<path fill="#795954" d="M55.391,69.555l0.117,0.82l0.273-0.281c0,0-0.281-0.914,0.344-1.313
					C56.133,68.781,55.563,68.852,55.391,69.555z"/>
				<path fill="#795954" d="M55.734,69.805l-0.336,0.961c0,0,0.805,0.016,0.781,0c-0.016-0.016-0.047-0.961-0.047-0.961
					S55.945,70.164,55.734,69.805z"/>
				<path fill="#795954" d="M56.133,68.219c0.727,0.516,0.18,1.32,0.164,1.336l0.375-0.391
					C56.734,68.391,56.133,68.219,56.133,68.219z"/>
			</g>
			<path fill="#795954" d="M54.016,68.508c1.242,0.656,1.211,1.828,1.211,1.828l0.469,0.047l-0.305-0.82
				C55.094,68.891,54.016,68.508,54.016,68.508z"/>
		</g>
	</g>
	<g>
		<g>
			<path fill="#759E56" d="M52.93,63.719c-1.289,0-2.328,1.039-2.328,2.328s1.039,2.328,2.328,2.328s2.328-1.039,2.328-2.328
				S54.211,63.719,52.93,63.719z"/>
			<path fill="#759E56" d="M55.813,64.375c-1.367,0-2.477,1.109-2.477,2.484c0,1.367,1.109,2.484,2.477,2.484
				s2.477-1.109,2.477-2.484C58.297,65.484,57.18,64.375,55.813,64.375z"/>
			<path fill="#759E56" d="M58.875,63.313c-1.492,0-2.711,1.156-2.711,2.586s1.211,2.586,2.711,2.586
				c1.492,0,2.711-1.156,2.711-2.586S60.375,63.313,58.875,63.313z"/>
			<ellipse fill="#759E56" cx="54.805" cy="63.086" rx="3.414" ry="3.414"/>
			<ellipse fill="#759E56" cx="57.539" cy="63.078" rx="3.109" ry="3.109"/>
		</g>
		<g opacity="0.2">
			<path fill="#010101" d="M53.133,67.781c-1.055,0.031-2.008-0.484-2.492-1.289c0.211,1.07,1.156,1.883,2.281,1.883
				c0.5,0,0.969-0.164,1.352-0.43c-0.133-0.07-0.25-0.164-0.352-0.266C53.672,67.742,53.406,67.773,53.133,67.781z"/>
			<path fill="#010101" d="M54.227,67.914c-0.102-0.055-0.195-0.125-0.281-0.188c-0.133,0.047-0.266,0.086-0.406,0.109
				c0.383,0.883,1.258,1.5,2.281,1.5c1.164,0,2.141-0.805,2.406-1.891c-0.414,0.367-0.945,0.617-1.484,0.719
				C55.922,68.328,54.969,68.344,54.227,67.914z"/>
			<path fill="#010101" d="M58.227,67.453c-0.047,0.063-0.078,0.227-0.125,0.281c-0.156,0.172-0.391,0.305-0.633,0.375
				c0.406,0.234,0.891,0.375,1.406,0.375c1.078,0,2.008-0.602,2.445-1.469C60.523,67.711,59.297,67.75,58.227,67.453z"/>
		</g>
	</g>
</g>
</svg>
