<?xml version="1.0" encoding="UTF-8"?>
<svg xmlns="http://www.w3.org/2000/svg" id="Camada_2" data-name="Camada 2" viewBox="0 0 68 68" width="600" height="600">
  <defs>
    <style>
      .cls-1 {
        fill: #fff;
      }

      .cls-1, .cls-2 {
        stroke-width: 0px;
      }

      .cls-2 {
        fill: #51575c;
      }
    </style>
  </defs>
  <g id="Layer_1" data-name="Layer 1">
    <g>
      <circle class="cls-2" cx="34" cy="34" r="34"/>
      <path class="cls-1" d="M42.72,43c.96,0,1.74-.78,1.74-1.74v-14.51c0-.62-.33-1.2-.87-1.51-.54-.31-1.2-.31-1.74,0l-7.85,4.53-7.85-4.53c-.54-.31-1.2-.31-1.74,0-.54.31-.87.89-.87,1.51v14.25c0,.96.78,1.74,1.74,1.74s1.74-.78,1.74-1.74v-11.23l5.23,3.02v5.15c0,.96.78,1.74,1.74,1.74s1.74-.78,1.74-1.74v-5.15l5.23-3.02v11.49c0,.96.78,1.74,1.74,1.74"/>
    </g>
  </g>
</svg>
