<?xml version="1.0" encoding="UTF-8"?>
<svg version="1.1" xmlns="http://www.w3.org/2000/svg" width="1900" height="1900">
<path d="M0 0 C1.28944834 -0.00282738 2.57889668 -0.00565475 3.9074192 -0.00856781 C10.0482429 -0.02197616 16.18904813 -0.03188471 22.32988518 -0.0357697 C28.61346469 -0.03977165 34.89689157 -0.05194648 41.18041992 -0.078125 C70.97143556 -0.19955772 100.54758596 -0.27972052 130.17578125 3.203125 C133.03960296 3.52115899 135.90413111 3.83270165 138.76855469 4.14526367 C164.74119864 6.99559662 190.79043416 10.83590403 216.29516602 16.55444336 C221.06190912 17.61508114 225.77538792 18.43332581 230.62109375 19.05078125 C239.78225337 20.31254623 248.66113773 22.6093225 257.61328125 24.890625 C258.4929657 25.11211212 259.37265015 25.33359924 260.2789917 25.5617981 C271.54578967 28.39903316 282.75123284 31.34370011 293.79858398 34.95776367 C298.46398539 36.46927923 303.07974861 37.62647497 307.890625 38.59375 C315.36147932 40.14395227 322.43038032 42.46702392 329.61328125 45.015625 C330.89423446 45.46335565 332.17532305 45.91069916 333.45654297 46.35766602 C341.00964897 49.00696257 348.48750153 51.78336445 355.83984375 54.94921875 C358.67977991 56.0166889 361.40473619 56.8085832 364.3359375 57.5625 C370.46270576 59.18774638 376.17168613 61.51863743 381.98828125 64.015625 C383.03927002 64.45994873 384.09025879 64.90427246 385.1730957 65.36206055 C391.82999991 68.18114734 398.46769182 71.04515865 405.1015625 73.91796875 C408.22438461 75.2234433 411.37564729 76.40630333 414.55078125 77.578125 C420.00128856 79.64735951 425.1641605 82.1218517 430.34179688 84.78222656 C435.57998243 87.45481984 440.89484244 89.91502203 446.25341797 92.33642578 C459.93998021 98.52811061 473.1411111 105.39695198 486.29931641 112.63574219 C489.61684089 114.44345796 492.96338899 116.1886611 496.31884766 117.92456055 C503.53327858 121.66051556 510.36925966 125.743198 517.125 130.2578125 C520.07420599 132.21498545 520.07420599 132.21498545 522.97265625 133.58984375 C527.41058054 135.8250422 531.54614438 138.47879641 535.73828125 141.140625 C536.57552734 141.66591797 537.41277344 142.19121094 538.27539062 142.73242188 C541.57051805 144.81698784 544.75072854 146.8537227 547.765625 149.33203125 C549.86818731 150.96432841 551.65413612 151.98612163 554.03125 153.12109375 C558.235838 155.14209445 561.79483679 157.68648877 565.48828125 160.515625 C569.7727926 163.73231896 574.04163743 166.83686761 578.61328125 169.640625 C583.99991195 172.98129508 589.00362412 176.74952266 594.046875 180.57861328 C598.51616658 183.96980488 603.03277356 187.27642635 607.61328125 190.515625 C621.13149598 200.1077326 621.13149598 200.1077326 625.67578125 204.765625 C627.8980581 206.93234492 629.88849666 208.36806134 632.48828125 210.015625 C636.59210054 212.66106223 639.77774336 215.68156165 643.14453125 219.1953125 C645.88982432 221.90892911 648.8968472 224.17512133 651.96875 226.50390625 C658.22848619 231.32334916 663.9498467 236.80684081 669.75317383 242.1574707 C672.51944942 244.70380579 675.31414901 247.20227587 678.17578125 249.640625 C682.19408712 253.11478529 685.90712486 256.87628805 689.61328125 260.67749023 C692.32745939 263.44006999 695.11415672 266.05133006 698.046875 268.58203125 C702.29500481 272.25862755 706.27842695 276.15772596 710.23828125 280.140625 C710.90666016 280.80513672 711.57503906 281.46964844 712.26367188 282.15429688 C716.1882808 286.08653381 719.90147482 290.13783305 723.5300293 294.34350586 C725.91157581 297.03453684 728.46811702 299.51990452 731.05078125 302.015625 C735.74146183 306.61831407 739.92609391 311.44624679 744.01171875 316.6015625 C746.83077765 319.99053944 749.92619553 323.01544591 753.1328125 326.03515625 C755.17578125 328.203125 755.17578125 328.203125 757.0625 331.0546875 C759.47166088 334.64393642 762.20391681 337.64296051 765.17578125 340.765625 C773.80222314 349.89385249 773.80222314 349.89385249 776.6953125 354.7578125 C778.20990679 357.25949067 779.86652886 359.19771575 781.86328125 361.328125 C785.90141262 365.79708775 789.39798879 370.50994773 792.88720703 375.41259766 C795.02126782 378.37796367 797.20076038 381.30964503 799.37402344 384.24633789 C806.88696429 394.39904043 814.15909998 404.6468246 821.125 415.18359375 C823.15183645 418.16786913 825.26982476 421.06118336 827.42578125 423.953125 C830.1297395 427.61825591 832.38607004 431.16981433 834.19140625 435.3515625 C835.18482665 437.35804688 835.18482665 437.35804688 836.9921875 439.47265625 C839.55524435 442.67762358 841.70397106 446.03134163 843.86328125 449.515625 C844.29753418 450.21276611 844.73178711 450.90990723 845.17919922 451.62817383 C848.58701627 457.14591612 851.79358556 462.7610328 854.93164062 468.43554688 C857.1223056 472.38334768 859.42377646 476.21393388 861.86328125 480.015625 C868.08290616 489.9794641 873.19165304 500.59971205 878.54394531 511.04541016 C880.29350614 514.43093076 882.09029469 517.78758209 883.9050293 521.13842773 C887.94503793 528.60566028 891.51980868 536.21730523 894.94482422 543.98535156 C897.02950092 548.70479004 899.21992513 553.31690464 901.61328125 557.890625 C905.2931149 565.12340148 908.22383869 572.6175844 911.1875 580.16723633 C914.77174007 589.28193168 918.57578985 598.29108198 922.50878906 607.26074219 C924.94503238 612.91044635 926.86989852 618.42687441 928.39086914 624.38476562 C929.87653671 629.71930574 931.94951556 634.84744994 933.92578125 640.015625 C937.20373373 648.72839384 940.35386529 657.45628529 943.17578125 666.328125 C943.45389648 667.19671143 943.73201172 668.06529785 944.01855469 668.96020508 C945.2103809 672.77040353 946.2651911 676.55072589 947.11230469 680.45263672 C948.10732942 685.00146331 949.30289295 689.47251177 950.56640625 693.953125 C951.03089954 695.61859123 951.49516504 697.28412099 951.95922852 698.94970703 C952.31901291 700.23726898 952.31901291 700.23726898 952.68606567 701.55084229 C956.18718629 714.10426417 959.66811711 726.66118306 962.73828125 739.328125 C962.96483398 740.24722656 963.19138672 741.16632812 963.42480469 742.11328125 C964.86269537 748.18586142 965.77362563 754.25854642 966.61499023 760.43945312 C967.20029072 764.36761693 967.91679784 768.25825996 968.69140625 772.15234375 C968.82894821 772.84504364 968.96649017 773.53774353 969.10820007 774.25143433 C969.39722574 775.70514738 969.68639872 777.15883115 969.97570801 778.61248779 C976.05058727 809.36172411 980.35113171 840.49777886 982.89082336 871.74038696 C983.06181209 873.8181998 983.24196948 875.89533258 983.44041443 877.97070312 C984.53396818 890.63061822 984.35996292 903.33051329 984.37890625 916.02734375 C984.38314732 917.96151626 984.38314732 917.96151626 984.38747406 919.93476295 C984.40088241 926.07558665 984.41079096 932.21639188 984.41467595 938.35722893 C984.4186779 944.64080844 984.43085273 950.92423532 984.45703125 957.20776367 C984.57846397 986.99877931 984.65862677 1016.57492971 981.17578125 1046.203125 C980.85774726 1049.06694671 980.5462046 1051.93147486 980.23364258 1054.79589844 C977.38330963 1080.76854239 973.54300222 1106.81777791 967.82446289 1132.32250977 C966.76382511 1137.08925287 965.94558044 1141.80273167 965.328125 1146.6484375 C964.06636002 1155.80959712 961.76958375 1164.68848148 959.48828125 1173.640625 C959.26679413 1174.52030945 959.04530701 1175.3999939 958.81710815 1176.30633545 C955.97987309 1187.57313342 953.03520614 1198.77857659 949.42114258 1209.82592773 C947.90962702 1214.49132914 946.75243128 1219.10709236 945.78515625 1223.91796875 C944.23495398 1231.38882307 941.91188233 1238.45772407 939.36328125 1245.640625 C938.9155506 1246.92157821 938.46820709 1248.2026668 938.02124023 1249.48388672 C935.37194368 1257.03699272 932.5955418 1264.51484528 929.4296875 1271.8671875 C928.36221735 1274.70712366 927.57032305 1277.43207994 926.81640625 1280.36328125 C925.19115987 1286.49004951 922.86026882 1292.19902988 920.36328125 1298.015625 C919.91895752 1299.06661377 919.47463379 1300.11760254 919.0168457 1301.20043945 C916.19775891 1307.85734366 913.3337476 1314.49503557 910.4609375 1321.12890625 C909.15546295 1324.25172836 907.97260292 1327.40299104 906.80078125 1330.578125 C904.73154674 1336.02863231 902.25705455 1341.19150425 899.59667969 1346.36914062 C896.92408641 1351.60732618 894.46388422 1356.92218619 892.04248047 1362.28076172 C885.85079564 1375.96732396 878.98195427 1389.16845485 871.74316406 1402.32666016 C869.93544829 1405.64418464 868.19024515 1408.99073274 866.4543457 1412.34619141 C862.71839069 1419.56062233 858.63570825 1426.39660341 854.12109375 1433.15234375 C852.1639208 1436.10154974 852.1639208 1436.10154974 850.7890625 1439 C848.55386405 1443.43792429 845.90010984 1447.57348813 843.23828125 1451.765625 C842.71298828 1452.60287109 842.18769531 1453.44011719 841.64648438 1454.30273438 C839.56191841 1457.5978618 837.52518355 1460.77807229 835.046875 1463.79296875 C833.41457784 1465.89553106 832.39278462 1467.68147987 831.2578125 1470.05859375 C829.2368118 1474.26318175 826.69241748 1477.82218054 823.86328125 1481.515625 C820.64658729 1485.80013635 817.54203864 1490.06898118 814.73828125 1494.640625 C811.39761117 1500.0272557 807.62938359 1505.03096787 803.80029297 1510.07421875 C800.40910137 1514.54351033 797.1024799 1519.06011731 793.86328125 1523.640625 C784.27117365 1537.15883973 784.27117365 1537.15883973 779.61328125 1541.703125 C777.44656133 1543.92540185 776.01084491 1545.91584041 774.36328125 1548.515625 C771.71784402 1552.61944429 768.6973446 1555.80508711 765.18359375 1559.171875 C762.46997714 1561.91716807 760.20378492 1564.92419095 757.875 1567.99609375 C753.05555709 1574.25582994 747.57206544 1579.97719045 742.22143555 1585.78051758 C739.67510046 1588.54679317 737.17663038 1591.34149276 734.73828125 1594.203125 C731.26412096 1598.22143087 727.5026182 1601.93446861 723.70141602 1605.640625 C720.93883626 1608.35480314 718.32757619 1611.14150047 715.796875 1614.07421875 C712.1202787 1618.32234856 708.22118029 1622.3057707 704.23828125 1626.265625 C703.57376953 1626.93400391 702.90925781 1627.60238281 702.22460938 1628.29101562 C698.29237244 1632.21562455 694.2410732 1635.92881857 690.03540039 1639.55737305 C687.34436941 1641.93891956 684.85900173 1644.49546077 682.36328125 1647.078125 C677.76059218 1651.76880558 672.93265946 1655.95343766 667.77734375 1660.0390625 C664.38836681 1662.8581214 661.36346034 1665.95353928 658.34375 1669.16015625 C656.17578125 1671.203125 656.17578125 1671.203125 653.32421875 1673.08984375 C649.73496983 1675.49900463 646.73594574 1678.23126056 643.61328125 1681.203125 C634.48505376 1689.82956689 634.48505376 1689.82956689 629.62109375 1692.72265625 C627.11941558 1694.23725054 625.1811905 1695.89387261 623.05078125 1697.890625 C618.5818185 1701.92875637 613.86895852 1705.42533254 608.96630859 1708.91455078 C606.00094258 1711.04861157 603.06926122 1713.22810413 600.13256836 1715.40136719 C589.97986582 1722.91430804 579.73208165 1730.18644373 569.1953125 1737.15234375 C566.21103712 1739.1791802 563.31772289 1741.29716851 560.42578125 1743.453125 C556.76065034 1746.15708325 553.20909192 1748.41341379 549.02734375 1750.21875 C547.02085937 1751.2121704 547.02085937 1751.2121704 544.90625 1753.01953125 C541.70128267 1755.5825881 538.34756462 1757.73131481 534.86328125 1759.890625 C534.16614014 1760.32487793 533.46899902 1760.75913086 532.75073242 1761.20654297 C527.23299013 1764.61436002 521.61787345 1767.82092931 515.94335938 1770.95898438 C511.99555857 1773.14964935 508.16497237 1775.45112021 504.36328125 1777.890625 C494.39944215 1784.11024991 483.7791942 1789.21899679 473.33349609 1794.57128906 C469.94797549 1796.32084989 466.59132416 1798.11763844 463.24047852 1799.93237305 C455.77324597 1803.97238168 448.16160102 1807.54715243 440.39355469 1810.97216797 C435.67411621 1813.05684467 431.06200161 1815.24726888 426.48828125 1817.640625 C419.25550477 1821.32045865 411.76132185 1824.25118244 404.21166992 1827.21484375 C395.09697457 1830.79908382 386.08782427 1834.6031336 377.11816406 1838.53613281 C371.4684599 1840.97237613 365.95203184 1842.89724227 359.99414062 1844.41821289 C354.65960051 1845.90388046 349.53145631 1847.97685931 344.36328125 1849.953125 C335.65051241 1853.23107748 326.92262096 1856.38120904 318.05078125 1859.203125 C316.74790161 1859.62029785 316.74790161 1859.62029785 315.41870117 1860.04589844 C311.60850272 1861.23772465 307.82818036 1862.29253485 303.92626953 1863.13964844 C299.37744294 1864.13467317 294.90639448 1865.3302367 290.42578125 1866.59375 C288.76031502 1867.05824329 287.09478526 1867.52250879 285.42919922 1867.98657227 C284.14163727 1868.34635666 284.14163727 1868.34635666 282.82806396 1868.71340942 C270.27464208 1872.21453004 257.71772319 1875.69546086 245.05078125 1878.765625 C244.13167969 1878.99217773 243.21257812 1879.21873047 242.265625 1879.45214844 C236.19304483 1880.89003912 230.12035983 1881.80096938 223.93945312 1882.64233398 C220.01128932 1883.22763447 216.12064629 1883.94414159 212.2265625 1884.71875 C211.53386261 1884.85629196 210.84116272 1884.99383392 210.12747192 1885.13554382 C208.67375887 1885.42456949 207.2200751 1885.71374247 205.76641846 1886.00305176 C175.01718214 1892.07793102 143.88112739 1896.37847546 112.63851929 1898.91816711 C110.56070645 1899.08915584 108.48357367 1899.26931323 106.40820312 1899.46775818 C93.74828803 1900.56131193 81.04839296 1900.38730667 68.3515625 1900.40625 C67.06211416 1900.40907738 65.77266582 1900.41190475 64.4441433 1900.41481781 C58.3033196 1900.42822616 52.16251437 1900.43813471 46.02167732 1900.4420197 C39.73809781 1900.44602165 33.45467093 1900.45819648 27.17114258 1900.484375 C-2.61987306 1900.60580772 -32.19602346 1900.68597052 -61.82421875 1897.203125 C-64.68804046 1896.88509101 -67.55256861 1896.57354835 -70.41699219 1896.26098633 C-96.38963614 1893.41065338 -122.43887166 1889.57034597 -147.94360352 1883.85180664 C-152.71034662 1882.79116886 -157.42382542 1881.97292419 -162.26953125 1881.35546875 C-171.43069087 1880.09370377 -180.30957523 1877.7969275 -189.26171875 1875.515625 C-190.1414032 1875.29413788 -191.02108765 1875.07265076 -191.9274292 1874.8444519 C-203.19422717 1872.00721684 -214.39967034 1869.06254989 -225.44702148 1865.44848633 C-230.11242289 1863.93697077 -234.72818611 1862.77977503 -239.5390625 1861.8125 C-247.00991682 1860.26229773 -254.07881782 1857.93922608 -261.26171875 1855.390625 C-262.54267196 1854.94289435 -263.82376055 1854.49555084 -265.10498047 1854.04858398 C-272.65808647 1851.39928743 -280.13593903 1848.62288555 -287.48828125 1845.45703125 C-290.32821741 1844.3895611 -293.05317369 1843.5976668 -295.984375 1842.84375 C-302.11114326 1841.21850362 -307.82012363 1838.88761257 -313.63671875 1836.390625 C-315.2132019 1835.7241394 -315.2132019 1835.7241394 -316.8215332 1835.04418945 C-323.47843741 1832.22510266 -330.11612932 1829.36109135 -336.75 1826.48828125 C-339.87282211 1825.1828067 -343.02408479 1823.99994667 -346.19921875 1822.828125 C-351.64972606 1820.75889049 -356.812598 1818.2843983 -361.99023438 1815.62402344 C-367.22841993 1812.95143016 -372.54327994 1810.49122797 -377.90185547 1808.06982422 C-391.58841771 1801.87813939 -404.7895486 1795.00929802 -417.94775391 1787.77050781 C-421.26527839 1785.96279204 -424.61182649 1784.2175889 -427.96728516 1782.48168945 C-435.18171608 1778.74573444 -442.01769716 1774.663052 -448.7734375 1770.1484375 C-451.72264349 1768.19126455 -451.72264349 1768.19126455 -454.62109375 1766.81640625 C-459.05901804 1764.5812078 -463.19458188 1761.92745359 -467.38671875 1759.265625 C-468.22396484 1758.74033203 -469.06121094 1758.21503906 -469.92382812 1757.67382812 C-473.21895555 1755.58926216 -476.39916604 1753.5525273 -479.4140625 1751.07421875 C-481.51662481 1749.44192159 -483.30257362 1748.42012837 -485.6796875 1747.28515625 C-489.8842755 1745.26415555 -493.44327429 1742.71976123 -497.13671875 1739.890625 C-501.4212301 1736.67393104 -505.69007493 1733.56938239 -510.26171875 1730.765625 C-515.64834945 1727.42495492 -520.65206162 1723.65672734 -525.6953125 1719.82763672 C-530.16460408 1716.43644512 -534.68121106 1713.12982365 -539.26171875 1709.890625 C-552.77993348 1700.2985174 -552.77993348 1700.2985174 -557.32421875 1695.640625 C-559.5464956 1693.47390508 -561.53693416 1692.03818866 -564.13671875 1690.390625 C-568.24053804 1687.74518777 -571.42618086 1684.72468835 -574.79296875 1681.2109375 C-577.53826182 1678.49732089 -580.5452847 1676.23112867 -583.6171875 1673.90234375 C-589.87692369 1669.08290084 -595.5982842 1663.59940919 -601.40161133 1658.2487793 C-604.16788692 1655.70244421 -606.96258651 1653.20397413 -609.82421875 1650.765625 C-613.84252462 1647.29146471 -617.55556236 1643.52996195 -621.26171875 1639.72875977 C-623.97589689 1636.96618001 -626.76259422 1634.35491994 -629.6953125 1631.82421875 C-633.94344231 1628.14762245 -637.92686445 1624.24852404 -641.88671875 1620.265625 C-642.88928711 1619.26885742 -642.88928711 1619.26885742 -643.91210938 1618.25195312 C-647.8367183 1614.31971619 -651.54991232 1610.26841695 -655.1784668 1606.06274414 C-657.56001331 1603.37171316 -660.11655452 1600.88634548 -662.69921875 1598.390625 C-667.38989933 1593.78793593 -671.57453141 1588.96000321 -675.66015625 1583.8046875 C-678.47921515 1580.41571056 -681.57463303 1577.39080409 -684.78125 1574.37109375 C-686.82421875 1572.203125 -686.82421875 1572.203125 -688.7109375 1569.3515625 C-691.12009838 1565.76231358 -693.85235431 1562.76328949 -696.82421875 1559.640625 C-705.45066064 1550.51239751 -705.45066064 1550.51239751 -708.34375 1545.6484375 C-709.85834429 1543.14675933 -711.51496636 1541.20853425 -713.51171875 1539.078125 C-717.54985012 1534.60916225 -721.04642629 1529.89630227 -724.53564453 1524.99365234 C-726.66970532 1522.02828633 -728.84919788 1519.09660497 -731.02246094 1516.15991211 C-738.53540179 1506.00720957 -745.80753748 1495.7594254 -752.7734375 1485.22265625 C-754.80027395 1482.23838087 -756.91826226 1479.34506664 -759.07421875 1476.453125 C-761.778177 1472.78799409 -764.03450754 1469.23643567 -765.83984375 1465.0546875 C-766.83326415 1463.04820312 -766.83326415 1463.04820312 -768.640625 1460.93359375 C-771.20368185 1457.72862642 -773.35240856 1454.37490837 -775.51171875 1450.890625 C-775.94597168 1450.19348389 -776.38022461 1449.49634277 -776.82763672 1448.77807617 C-780.23545377 1443.26033388 -783.44202306 1437.6452172 -786.58007812 1431.97070312 C-788.7707431 1428.02290232 -791.07221396 1424.19231612 -793.51171875 1420.390625 C-799.73134366 1410.4267859 -804.84009054 1399.80653795 -810.19238281 1389.36083984 C-811.94194364 1385.97531924 -813.73873219 1382.61866791 -815.5534668 1379.26782227 C-819.59347543 1371.80058972 -823.16824618 1364.18894477 -826.59326172 1356.42089844 C-828.67793842 1351.70145996 -830.86836263 1347.08934536 -833.26171875 1342.515625 C-836.9415524 1335.28284852 -839.87227619 1327.7886656 -842.8359375 1320.23901367 C-846.42017757 1311.12431832 -850.22422735 1302.11516802 -854.15722656 1293.14550781 C-856.59346988 1287.49580365 -858.51833602 1281.97937559 -860.03930664 1276.02148438 C-861.52497421 1270.68694426 -863.59795306 1265.55880006 -865.57421875 1260.390625 C-868.85217123 1251.67785616 -872.00230279 1242.94996471 -874.82421875 1234.078125 C-875.10233398 1233.20953857 -875.38044922 1232.34095215 -875.66699219 1231.44604492 C-876.8588184 1227.63584647 -877.9136286 1223.85552411 -878.76074219 1219.95361328 C-879.75576692 1215.40478669 -880.95133045 1210.93373823 -882.21484375 1206.453125 C-882.67933704 1204.78765877 -883.14360254 1203.12212901 -883.60766602 1201.45654297 C-883.84752228 1200.59816833 -884.08737854 1199.7397937 -884.33450317 1198.85540771 C-887.83562379 1186.30198583 -891.31655461 1173.74506694 -894.38671875 1161.078125 C-894.61327148 1160.15902344 -894.83982422 1159.23992187 -895.07324219 1158.29296875 C-896.51113287 1152.22038858 -897.42206313 1146.14770358 -898.26342773 1139.96679688 C-898.84872822 1136.03863307 -899.56523534 1132.14799004 -900.33984375 1128.25390625 C-900.47738571 1127.56120636 -900.61492767 1126.86850647 -900.75663757 1126.15481567 C-901.04566324 1124.70110262 -901.33483622 1123.24741885 -901.62414551 1121.79376221 C-907.69902477 1091.04452589 -911.99956921 1059.90847114 -914.53926086 1028.66586304 C-914.71024959 1026.5880502 -914.89040698 1024.51091742 -915.08885193 1022.43554688 C-916.18240568 1009.77563178 -916.00840042 997.07573671 -916.02734375 984.37890625 C-916.03017113 983.08945791 -916.0329985 981.80000957 -916.03591156 980.47148705 C-916.04931991 974.33066335 -916.05922846 968.18985812 -916.06311345 962.04902107 C-916.0671154 955.76544156 -916.07929023 949.48201468 -916.10546875 943.19848633 C-916.22690147 913.40747069 -916.30706427 883.83132029 -912.82421875 854.203125 C-912.50618476 851.33930329 -912.1946421 848.47477514 -911.88208008 845.61035156 C-909.03174713 819.63770761 -905.19143972 793.58847209 -899.47290039 768.08374023 C-898.41226261 763.31699713 -897.59401794 758.60351833 -896.9765625 753.7578125 C-895.71479752 744.59665288 -893.41802125 735.71776852 -891.13671875 726.765625 C-890.91523163 725.88594055 -890.69374451 725.0062561 -890.46554565 724.09991455 C-887.62831059 712.83311658 -884.68364364 701.62767341 -881.06958008 690.58032227 C-879.55806452 685.91492086 -878.40086878 681.29915764 -877.43359375 676.48828125 C-875.88339148 669.01742693 -873.56031983 661.94852593 -871.01171875 654.765625 C-870.5639881 653.48467179 -870.11664459 652.2035832 -869.66967773 650.92236328 C-867.02038118 643.36925728 -864.2439793 635.89140472 -861.078125 628.5390625 C-860.01065485 625.69912634 -859.21876055 622.97417006 -858.46484375 620.04296875 C-856.83959737 613.91620049 -854.50870632 608.20722012 -852.01171875 602.390625 C-851.56739502 601.33963623 -851.12307129 600.28864746 -850.6652832 599.20581055 C-847.84619641 592.54890634 -844.9821851 585.91121443 -842.109375 579.27734375 C-840.80390045 576.15452164 -839.62104042 573.00325896 -838.44921875 569.828125 C-836.37998424 564.37761769 -833.90549205 559.21474575 -831.24511719 554.03710938 C-828.57252391 548.79892382 -826.11232172 543.48406381 -823.69091797 538.12548828 C-817.49923314 524.43892604 -810.63039177 511.23779515 -803.39160156 498.07958984 C-801.58388579 494.76206536 -799.83868265 491.41551726 -798.1027832 488.06005859 C-794.36682819 480.84562767 -790.28414575 474.00964659 -785.76953125 467.25390625 C-783.8123583 464.30470026 -783.8123583 464.30470026 -782.4375 461.40625 C-780.20230155 456.96832571 -777.54854734 452.83276187 -774.88671875 448.640625 C-774.36142578 447.80337891 -773.83613281 446.96613281 -773.29492188 446.10351562 C-771.21035591 442.8083882 -769.17362105 439.62817771 -766.6953125 436.61328125 C-765.06301534 434.51071894 -764.04122212 432.72477013 -762.90625 430.34765625 C-760.8852493 426.14306825 -758.34085498 422.58406946 -755.51171875 418.890625 C-752.29502479 414.60611365 -749.19047614 410.33726882 -746.38671875 405.765625 C-743.04604867 400.3789943 -739.27782109 395.37528213 -735.44873047 390.33203125 C-732.05753887 385.86273967 -728.7509174 381.34613269 -725.51171875 376.765625 C-715.91961115 363.24741027 -715.91961115 363.24741027 -711.26171875 358.703125 C-709.09499883 356.48084815 -707.65928241 354.49040959 -706.01171875 351.890625 C-703.36628152 347.78680571 -700.3457821 344.60116289 -696.83203125 341.234375 C-694.11841464 338.48908193 -691.85222242 335.48205905 -689.5234375 332.41015625 C-684.70399459 326.15042006 -679.22050294 320.42905955 -673.86987305 314.62573242 C-671.32353796 311.85945683 -668.82506788 309.06475724 -666.38671875 306.203125 C-662.91255846 302.18481913 -659.1510557 298.47178139 -655.34985352 294.765625 C-652.58727376 292.05144686 -649.97601369 289.26474953 -647.4453125 286.33203125 C-643.7687162 282.08390144 -639.86961779 278.1004793 -635.88671875 274.140625 C-635.22220703 273.47224609 -634.55769531 272.80386719 -633.87304688 272.11523438 C-629.94080994 268.19062545 -625.8895107 264.47743143 -621.68383789 260.84887695 C-618.99280691 258.46733044 -616.50743923 255.91078923 -614.01171875 253.328125 C-609.40902968 248.63744442 -604.58109696 244.45281234 -599.42578125 240.3671875 C-596.03680431 237.5481286 -593.01189784 234.45271072 -589.9921875 231.24609375 C-587.82421875 229.203125 -587.82421875 229.203125 -584.97265625 227.31640625 C-581.38340733 224.90724537 -578.38438324 222.17498944 -575.26171875 219.203125 C-566.13349126 210.57668311 -566.13349126 210.57668311 -561.26953125 207.68359375 C-558.76785308 206.16899946 -556.829628 204.51237739 -554.69921875 202.515625 C-550.230256 198.47749363 -545.51739602 194.98091746 -540.61474609 191.49169922 C-537.64938008 189.35763843 -534.71769872 187.17814587 -531.78100586 185.00488281 C-521.62830332 177.49194196 -511.38051915 170.21980627 -500.84375 163.25390625 C-497.85947462 161.2270698 -494.96616039 159.10908149 -492.07421875 156.953125 C-488.40908784 154.24916675 -484.85752942 151.99283621 -480.67578125 150.1875 C-478.66929687 149.1940796 -478.66929687 149.1940796 -476.5546875 147.38671875 C-473.34972017 144.8236619 -469.99600212 142.67493519 -466.51171875 140.515625 C-465.81457764 140.08137207 -465.11743652 139.64711914 -464.39916992 139.19970703 C-458.88142763 135.79188998 -453.26631095 132.58532069 -447.59179688 129.44726562 C-443.64399607 127.25660065 -439.81340987 124.95512979 -436.01171875 122.515625 C-426.04787965 116.29600009 -415.4276317 111.18725321 -404.98193359 105.83496094 C-401.59641299 104.08540011 -398.23976166 102.28861156 -394.88891602 100.47387695 C-387.42168347 96.43386832 -379.81003852 92.85909757 -372.04199219 89.43408203 C-367.32255371 87.34940533 -362.71043911 85.15898112 -358.13671875 82.765625 C-350.90394227 79.08579135 -343.40975935 76.15506756 -335.86010742 73.19140625 C-326.74541207 69.60716618 -317.73626177 65.8031164 -308.76660156 61.87011719 C-303.1168974 59.43387387 -297.60046934 57.50900773 -291.64257812 55.98803711 C-286.30803801 54.50236954 -281.17989381 52.42939069 -276.01171875 50.453125 C-267.29894991 47.17517252 -258.57105846 44.02504096 -249.69921875 41.203125 C-248.83063232 40.92500977 -247.9620459 40.64689453 -247.06713867 40.36035156 C-243.25694022 39.16852535 -239.47661786 38.11371515 -235.57470703 37.26660156 C-231.02588044 36.27157683 -226.55483198 35.0760133 -222.07421875 33.8125 C-220.40875252 33.34800671 -218.74322276 32.88374121 -217.07763672 32.41967773 C-216.21926208 32.17982147 -215.36088745 31.93996521 -214.47650146 31.69284058 C-201.92307958 28.19171996 -189.36616069 24.71078914 -176.69921875 21.640625 C-175.78011719 21.41407227 -174.86101563 21.18751953 -173.9140625 20.95410156 C-167.84148233 19.51621088 -161.76879733 18.60528062 -155.58789062 17.76391602 C-151.65972682 17.17861553 -147.76908379 16.46210841 -143.875 15.6875 C-143.18230011 15.54995804 -142.48960022 15.41241608 -141.77590942 15.27070618 C-140.32219637 14.98168051 -138.8685126 14.69250753 -137.41485596 14.40319824 C-106.66561964 8.32831898 -75.52956489 4.02777454 -44.28695679 1.48808289 C-42.20914395 1.31709416 -40.13201117 1.13693677 -38.05664062 0.93849182 C-25.39672553 -0.15506193 -12.69683046 0.01894333 0 0 Z " fill="#51575C" transform="translate(915.82421875,-0.203125)"/>
<path d="M0 0 C3.49600919 0.00109816 6.99200143 -0.00388491 10.48800683 -0.00860542 C18.78539184 -0.01957852 27.08273158 -0.02021157 35.38012028 -0.01409125 C42.84371522 -0.00875672 50.30717267 -0.01573895 57.77074528 -0.03459907 C152.34715445 -0.26798179 152.34715445 -0.26798179 197.07366657 4.64455914 C202.53170537 5.23030619 207.95472705 5.49069451 213.44164371 5.61408257 C243.06273015 6.66650816 272.82237269 11.37859541 301.90386295 16.92591119 C303.85415668 17.29683038 305.80585498 17.66033946 307.75756168 18.02375054 C323.49726388 20.99085445 338.14822907 24.99426138 352.87914371 31.30158257 C353.534632 31.56970757 354.19012028 31.83783257 354.86547184 32.11408257 C366.90896899 37.08441473 371.80838967 46.87907139 376.87914371 58.30158257 C378.11636466 61.60226544 379.03690754 64.88381257 379.87914371 68.30158257 C380.36501565 69.80621823 380.86514747 71.30632077 381.37914371 72.80158257 C382.99622581 77.60229503 384.4585474 82.43954784 385.87914371 87.30158257 C386.2242902 88.454367 386.2242902 88.454367 386.57640934 89.63044 C388.9537442 97.89298845 390.43006612 106.27782593 391.87914371 114.73908257 C392.14448941 116.27343111 392.40987059 117.8077735 392.67528629 119.34210992 C393.31056216 123.02904566 393.93697593 126.71741339 394.55889225 130.40662408 C394.83524643 132.04183813 395.11538328 133.67641208 395.39623356 135.31085992 C397.22771613 146.04934923 398.40643187 156.83548118 399.44164371 167.67658257 C399.55661198 168.87428277 399.67158024 170.07198297 399.79003239 171.30597711 C400.10515201 174.76848017 400.39604789 178.23135195 400.67015934 181.69727349 C400.81820337 183.54215976 400.97229276 185.38656548 401.13060856 187.23059869 C403.18036378 211.45097716 403.27583802 235.63408058 403.25414371 259.92658257 C403.25425602 262.02473728 403.25437816 264.12289198 403.25450993 266.22104669 C403.23977893 297.75135707 402.44186786 328.94392361 398.87914371 360.30158257 C398.71127837 361.84317205 398.54410045 363.38483657 398.37767887 364.92658257 C387.35449657 465.76758945 387.35449657 465.76758945 362.87914371 489.30158257 C352.60401455 496.96996715 335.74567927 499.23700132 323.50414371 501.36408257 C322.80626743 501.48820519 322.10839115 501.61232781 321.3893671 501.74021173 C310.6133309 503.64911303 299.80959903 505.20853623 288.94164371 506.48908257 C287.13010807 506.70286553 287.13010807 506.70286553 285.28197575 506.92096734 C258.94198893 509.85307802 232.5250358 511.78399929 206.06792545 513.24524713 C203.96713357 513.36265798 201.86659598 513.48381791 199.76610661 513.60651422 C189.984676 514.17783491 180.2012845 514.69182855 170.41508579 515.17433572 C167.8419918 515.30344676 165.26929308 515.4389202 162.69658756 515.57553887 C121.72504935 517.72403687 80.74554205 517.64372431 39.73068374 517.61526304 C33.08888436 517.61182732 26.44719105 517.62125273 19.80541325 517.63776422 C-20.46850244 517.73540297 -60.68916239 517.49291523 -100.93726254 515.94220757 C-102.13782174 515.89664928 -102.13782174 515.89664928 -103.36263466 515.85017061 C-143.03095322 514.33985283 -182.63895319 511.43297625 -222.12085629 507.30158257 C-222.10514584 508.19385552 -222.08943539 509.08612847 -222.07324886 510.00544 C-221.58633457 542.83825543 -223.26062169 575.53188289 -225.12085629 608.30158257 C-225.17368771 609.23830804 -225.22651913 610.1750335 -225.2809515 611.14014459 C-226.14860108 626.4601604 -227.21343014 641.74797887 -228.78931332 657.01252007 C-229.11676977 660.26104237 -229.42778774 663.51074972 -229.73509884 666.76122308 C-242.21082888 798.60230793 -242.21082888 798.60230793 -263.12085629 816.30158257 C-268.0662034 817.25874653 -268.0662034 817.25874653 -271.12085629 816.30158257 C-279.14470504 809.38124682 -282.8812138 796.97258746 -285.55835629 787.11408257 C-285.85129574 786.04818902 -286.14423519 784.98229547 -286.4460516 783.88410211 C-291.87497431 763.50075205 -295.42527562 742.65286499 -297.84155941 721.71173882 C-298.24167067 718.25903051 -298.68277826 714.8121806 -299.12085629 711.36408257 C-299.27554379 710.1085357 -299.43023129 708.85298882 -299.58960629 707.55939507 C-299.99222347 704.30228493 -300.41384857 701.04793383 -300.83960629 697.79377007 C-302.51616678 684.86226661 -303.86601057 671.94148435 -304.87134457 658.94025445 C-305.0748306 656.78831991 -305.33713191 654.64201341 -305.61646175 652.49860406 C-306.13768615 648.40181501 -306.41086823 644.30368184 -306.62085629 640.18048882 C-306.66146175 639.43629189 -306.70206722 638.69209496 -306.74390316 637.92534661 C-306.87220706 635.57172577 -306.99695636 633.21793908 -307.12085629 630.86408257 C-307.28456084 627.76105001 -307.45177925 624.65823274 -307.62085629 621.55548882 C-307.6563055 620.86145455 -307.69175472 620.16742028 -307.72827816 619.45235467 C-307.91761752 615.9775777 -308.19329999 612.53838022 -308.60718441 609.08283257 C-309.28133329 603.25282458 -309.54982821 597.40735853 -309.83960629 591.54767632 C-309.9024078 590.2980964 -309.96520931 589.04851647 -310.0299139 587.76107049 C-310.16250001 585.09747203 -310.29375388 582.43384255 -310.42310238 579.77008843 C-310.61220667 575.88626715 -310.81417444 572.00315493 -311.01538754 568.11994195 C-313.21268993 524.30900931 -313.28752365 480.45412701 -313.24942613 436.59895819 C-313.24564078 431.73867688 -313.24703045 426.8784159 -313.25122738 422.01813531 C-313.28668881 379.72001381 -312.80412568 337.49641438 -310.84162807 295.24002862 C-310.74289195 293.11271457 -310.64527804 290.98535097 -310.5477972 288.85797906 C-308.58693218 246.20608123 -305.71816979 203.75886983 -301.12085629 161.30158257 C-301.01795284 160.34904595 -300.9150494 159.39650933 -300.80902767 158.41510797 C-289.42347731 53.63441736 -289.42347731 53.63441736 -267.02320004 35.61408257 C-254.91811325 27.64092078 -240.42356771 23.89323149 -226.49585629 20.61408257 C-225.33731136 20.34088189 -224.17876644 20.06768121 -222.9851141 19.78620172 C-203.28985778 15.34981443 -183.27536659 12.63850391 -163.24585629 10.23908257 C-162.18847256 10.1111834 -161.13108883 9.98328424 -160.04166317 9.85150933 C-132.05959342 6.47614938 -104.1286988 4.10382507 -75.97913265 2.72910142 C-71.06814563 2.48043617 -66.16450173 2.17052142 -61.25948238 1.8231585 C-40.82362557 0.41180776 -20.480626 -0.01284181 0 0 Z " fill="#51575C" transform="translate(902.1208562850952,577.6984174251556)"/>
<path d="M0 0 C3.49600919 0.00109816 6.99200143 -0.00388491 10.48800683 -0.00860542 C18.78539184 -0.01957852 27.08273158 -0.02021157 35.38012028 -0.01409125 C42.84371522 -0.00875672 50.30717267 -0.01573895 57.77074528 -0.03459907 C152.34715445 -0.26798179 152.34715445 -0.26798179 197.07366657 4.64455914 C202.53170537 5.23030619 207.95472705 5.49069451 213.44164371 5.61408257 C243.06273015 6.66650816 272.82237269 11.37859541 301.90386295 16.92591119 C303.85415668 17.29683038 305.80585498 17.66033946 307.75756168 18.02375054 C323.49726388 20.99085445 338.14822907 24.99426138 352.87914371 31.30158257 C353.534632 31.56970757 354.19012028 31.83783257 354.86547184 32.11408257 C366.90896899 37.08441473 371.80838967 46.87907139 376.87914371 58.30158257 C378.11636466 61.60226544 379.03690754 64.88381257 379.87914371 68.30158257 C380.36501565 69.80621823 380.86514747 71.30632077 381.37914371 72.80158257 C382.99622581 77.60229503 384.4585474 82.43954784 385.87914371 87.30158257 C386.2242902 88.454367 386.2242902 88.454367 386.57640934 89.63044 C388.9537442 97.89298845 390.43006612 106.27782593 391.87914371 114.73908257 C392.14448941 116.27343111 392.40987059 117.8077735 392.67528629 119.34210992 C393.31056216 123.02904566 393.93697593 126.71741339 394.55889225 130.40662408 C394.83524643 132.04183813 395.11538328 133.67641208 395.39623356 135.31085992 C397.22771613 146.04934923 398.40643187 156.83548118 399.44164371 167.67658257 C399.55661198 168.87428277 399.67158024 170.07198297 399.79003239 171.30597711 C400.10515201 174.76848017 400.39604789 178.23135195 400.67015934 181.69727349 C400.81820337 183.54215976 400.97229276 185.38656548 401.13060856 187.23059869 C403.18036378 211.45097716 403.27583802 235.63408058 403.25414371 259.92658257 C403.25425602 262.02473728 403.25437816 264.12289198 403.25450993 266.22104669 C403.23977893 297.75135707 402.44186786 328.94392361 398.87914371 360.30158257 C398.71127837 361.84317205 398.54410045 363.38483657 398.37767887 364.92658257 C387.35449657 465.76758945 387.35449657 465.76758945 362.87914371 489.30158257 C352.60401455 496.96996715 335.74567927 499.23700132 323.50414371 501.36408257 C322.80626743 501.48820519 322.10839115 501.61232781 321.3893671 501.74021173 C310.6133309 503.64911303 299.80959903 505.20853623 288.94164371 506.48908257 C287.13010807 506.70286553 287.13010807 506.70286553 285.28197575 506.92096734 C258.94198893 509.85307802 232.5250358 511.78399929 206.06792545 513.24524713 C203.96713357 513.36265798 201.86659598 513.48381791 199.76610661 513.60651422 C189.984676 514.17783491 180.2012845 514.69182855 170.41508579 515.17433572 C167.8419918 515.30344676 165.26929308 515.4389202 162.69658756 515.57553887 C121.72504935 517.72403687 80.74554205 517.64372431 39.73068374 517.61526304 C33.08888436 517.61182732 26.44719105 517.62125273 19.80541325 517.63776422 C-20.46850244 517.73540297 -60.68916239 517.49291523 -100.93726254 515.94220757 C-102.13782174 515.89664928 -102.13782174 515.89664928 -103.36263466 515.85017061 C-143.03095322 514.33985283 -182.63895319 511.43297625 -222.12085629 507.30158257 C-222.10514584 508.19385552 -222.08943539 509.08612847 -222.07324886 510.00544 C-221.58633457 542.83825543 -223.26062169 575.53188289 -225.12085629 608.30158257 C-225.17368771 609.23830804 -225.22651913 610.1750335 -225.2809515 611.14014459 C-226.14860108 626.4601604 -227.21343014 641.74797887 -228.78931332 657.01252007 C-229.11676977 660.26104237 -229.42778774 663.51074972 -229.73509884 666.76122308 C-242.21082888 798.60230793 -242.21082888 798.60230793 -263.12085629 816.30158257 C-268.0662034 817.25874653 -268.0662034 817.25874653 -271.12085629 816.30158257 C-279.14470504 809.38124682 -282.8812138 796.97258746 -285.55835629 787.11408257 C-285.85129574 786.04818902 -286.14423519 784.98229547 -286.4460516 783.88410211 C-291.87497431 763.50075205 -295.42527562 742.65286499 -297.84155941 721.71173882 C-298.24167067 718.25903051 -298.68277826 714.8121806 -299.12085629 711.36408257 C-299.27554379 710.1085357 -299.43023129 708.85298882 -299.58960629 707.55939507 C-299.99222347 704.30228493 -300.41384857 701.04793383 -300.83960629 697.79377007 C-302.51616678 684.86226661 -303.86601057 671.94148435 -304.87134457 658.94025445 C-305.0748306 656.78831991 -305.33713191 654.64201341 -305.61646175 652.49860406 C-306.13768615 648.40181501 -306.41086823 644.30368184 -306.62085629 640.18048882 C-306.66146175 639.43629189 -306.70206722 638.69209496 -306.74390316 637.92534661 C-306.87220706 635.57172577 -306.99695636 633.21793908 -307.12085629 630.86408257 C-307.28456084 627.76105001 -307.45177925 624.65823274 -307.62085629 621.55548882 C-307.6563055 620.86145455 -307.69175472 620.16742028 -307.72827816 619.45235467 C-307.91761752 615.9775777 -308.19329999 612.53838022 -308.60718441 609.08283257 C-309.28133329 603.25282458 -309.54982821 597.40735853 -309.83960629 591.54767632 C-309.9024078 590.2980964 -309.96520931 589.04851647 -310.0299139 587.76107049 C-310.16250001 585.09747203 -310.29375388 582.43384255 -310.42310238 579.77008843 C-310.61220667 575.88626715 -310.81417444 572.00315493 -311.01538754 568.11994195 C-313.21268993 524.30900931 -313.28752365 480.45412701 -313.24942613 436.59895819 C-313.24564078 431.73867688 -313.24703045 426.8784159 -313.25122738 422.01813531 C-313.28668881 379.72001381 -312.80412568 337.49641438 -310.84162807 295.24002862 C-310.74289195 293.11271457 -310.64527804 290.98535097 -310.5477972 288.85797906 C-308.58693218 246.20608123 -305.71816979 203.75886983 -301.12085629 161.30158257 C-301.01795284 160.34904595 -300.9150494 159.39650933 -300.80902767 158.41510797 C-289.42347731 53.63441736 -289.42347731 53.63441736 -267.02320004 35.61408257 C-254.91811325 27.64092078 -240.42356771 23.89323149 -226.49585629 20.61408257 C-225.33731136 20.34088189 -224.17876644 20.06768121 -222.9851141 19.78620172 C-203.28985778 15.34981443 -183.27536659 12.63850391 -163.24585629 10.23908257 C-162.18847256 10.1111834 -161.13108883 9.98328424 -160.04166317 9.85150933 C-132.05959342 6.47614938 -104.1286988 4.10382507 -75.97913265 2.72910142 C-71.06814563 2.48043617 -66.16450173 2.17052142 -61.25948238 1.8231585 C-40.82362557 0.41180776 -20.480626 -0.01284181 0 0 Z M-251.12085629 61.30158257 C-250.18296773 66.32358613 -249.16621339 71.29633371 -247.82398129 76.22736382 C-240.05390184 104.81149666 -236.6004251 134.31365575 -233.50269222 163.71125054 C-233.10414071 167.458756 -232.67628915 171.20197863 -232.23926449 174.94513726 C-230.15599133 192.97370377 -228.89096557 211.07646741 -227.62085629 229.17658257 C-227.56100552 230.02501733 -227.50115475 230.87345208 -227.43949032 231.74759698 C-226.98165534 238.26441609 -226.5460446 244.78255619 -226.12085629 251.30158257 C-226.04046108 252.52772271 -225.96006588 253.75386285 -225.87723446 255.01715875 C-224.59968702 274.68809619 -223.62015587 294.34502207 -223.05835629 314.05158257 C-223.01726692 315.4411008 -222.97610741 316.83061696 -222.93488216 318.22013116 C-221.52980733 366.22921731 -221.44121005 414.27584506 -221.12085629 462.30158257 C-212.69371583 461.75837046 -204.27503829 461.17906682 -195.86304379 460.43439507 C-172.03085672 458.38620372 -148.19984423 456.76453585 -124.30835629 455.61408257 C-123.06044308 455.55359735 -121.81252987 455.49311212 -120.52680111 455.430794 C-113.30750252 455.08448957 -106.08762223 454.76369265 -98.86641407 454.45944428 C-96.54220158 454.36148714 -94.21803928 454.2623214 -91.89396 454.16125321 C-70.72804048 453.25716108 -49.58690909 453.13734897 -28.40523124 453.1343255 C-25.5396864 453.13360221 -22.67414603 453.1314443 -19.80860233 453.12882829 C-9.69580575 453.11962772 0.41697786 453.11548541 10.52977848 453.11627984 C18.74887405 453.11680917 26.96792167 453.10982634 35.18700504 453.09577203 C113.38188854 452.96510091 191.67546341 453.6133985 269.50414371 462.04444146 C271.87365376 462.30098818 274.24355179 462.55368991 276.61351871 462.80597711 C292.50351253 464.50828725 308.28107111 466.45596946 323.96898746 469.56720757 C327.70746518 470.39387504 327.70746518 470.39387504 330.87914371 470.30158257 C330.46685981 469.00851032 330.04894078 467.71723525 329.62914371 466.42658257 C329.28109684 465.34763726 329.28109684 465.34763726 328.92601871 464.24689507 C328.325064 462.55614934 327.69821959 460.87309395 327.00023746 459.22003961 C324.0742684 452.27086307 322.15801983 445.2451551 320.37914371 437.92658257 C320.09683903 436.80380914 319.81453434 435.6810357 319.52367496 434.52423882 C315.32549189 417.52254721 312.27966866 400.51205159 310.31664371 383.11408257 C310.10490254 381.28601892 309.89298546 379.45797564 309.68090153 377.62995172 C306.30191449 348.19939179 303.72203708 318.85562034 303.71117496 289.21564507 C303.70794685 287.1041845 303.70458173 284.99272413 303.70108891 282.88126397 C303.69513849 278.46895608 303.69324441 274.05666763 303.69384098 269.64435601 C303.69392169 265.19802507 303.68706218 260.75179837 303.67333317 256.30548882 C303.57538119 224.06880385 303.72803784 191.85188542 307.62914371 159.80158257 C307.71084812 159.10907403 307.79255253 158.41656549 307.87673283 157.70307183 C311.26281217 129.1258573 315.17319486 99.10484386 324.96117496 71.96955132 C325.98759392 69.45663067 325.98759392 69.45663067 325.87914371 67.30158257 C319.93248158 68.37399445 313.9911528 69.46963912 308.05492496 70.59845757 C259.00986968 79.76513662 209.24807681 84.0423074 159.48461246 87.02033257 C158.74181538 87.06508721 157.99901829 87.10984185 157.2337122 87.15595269 C142.20777714 88.01024385 127.15805751 88.46267695 112.11351871 88.83283257 C111.24781191 88.85414994 110.3821051 88.87546731 109.49016476 88.89743066 C87.47551739 89.42666693 65.4619314 89.54431795 43.44164371 89.55158257 C41.89115267 89.55268722 41.89115267 89.55268722 40.30933857 89.55381417 C3.89264027 89.57480433 -32.34539727 88.69389218 -68.69574642 86.50403619 C-73.0690326 86.24553715 -77.44343685 86.01100359 -81.81807613 85.77674127 C-136.10339124 82.84856233 -191.6692302 78.3514421 -244.12085629 63.30158257 C-245.23412289 62.9859234 -245.23412289 62.9859234 -246.36987972 62.66388726 C-247.95459281 62.21347852 -249.53794331 61.75827735 -251.12085629 61.30158257 Z " fill="#FEFEFE" transform="translate(902.1208562850952,577.6984174251556)"/>
<path d="M0 0 C1.00675781 0.35320313 2.01351562 0.70640625 3.05078125 1.0703125 C15.65725935 6.77495431 25.28925789 18.00292428 34.88671875 27.60546875 C36.5330639 29.24469822 38.1797011 30.88363442 39.82661438 32.52229309 C43.26337418 35.94566576 46.69420892 39.3748485 50.12133789 42.80786133 C54.48854369 47.18096272 58.8737269 51.53553117 63.26402569 55.88543224 C66.66589455 59.26130996 70.0560784 62.64874085 73.44315529 66.03945351 C75.05415432 67.64877254 76.6690832 69.25416857 78.28818321 70.85533714 C94.59312029 86.99941985 105.37523398 101.89035578 106.0625 125.8125 C106.00233932 134.49282667 103.78033989 141.81983203 100.6875 149.875 C100.33816406 150.80183594 99.98882813 151.72867188 99.62890625 152.68359375 C93.68132261 166.29985667 79.30660978 177.45838102 68.9765625 187.859375 C68.24162945 188.59963173 67.5066964 189.33988846 66.74949265 190.10257721 C62.86675767 194.01181 58.98050973 197.91751502 55.09179688 201.82080078 C51.90212171 205.02384814 48.7198933 208.23402563 45.54394531 211.45068359 C41.67158237 215.3726359 37.78683334 219.28191412 33.89313889 223.18268585 C32.42585353 224.65662791 30.96277898 226.13477575 29.50429153 227.61742401 C14.33924312 243.01951 -0.74137335 253.95831429 -23.1875 254.25 C-43.78812595 254.31371738 -58.75897151 244.90138657 -73.03587627 230.79383755 C-75.43767061 228.39329663 -77.82667019 225.98049246 -80.21484375 223.56640625 C-81.90737105 221.87216437 -83.60079264 220.17881546 -85.2950592 218.48631287 C-88.82511999 214.95460733 -92.34656843 211.41461015 -95.86157227 207.86791992 C-100.35218277 203.33754424 -104.86033547 198.82512786 -109.37460995 194.31834507 C-112.86612754 190.82990546 -116.34998136 187.33389467 -119.83142281 183.83540154 C-121.49079333 182.16903588 -123.15208482 180.50458072 -124.815382 178.84213448 C-127.14088983 176.51481631 -129.45631565 174.17790417 -131.76928711 171.83813477 C-132.44729874 171.16305374 -133.12531036 170.48797272 -133.8238678 169.79243469 C-147.255622 156.12149097 -152.71699053 140.87114165 -152.61083984 121.97998047 C-152.02029046 95.89823845 -134.30524342 80.70550926 -117.17578125 63.4296875 C-116.40716452 62.65449894 -115.63854778 61.87931038 -114.84663963 61.08063126 C-110.78149579 56.98309709 -106.71241616 52.88951072 -102.64086914 48.79833984 C-99.29763476 45.43727857 -95.96313439 42.0679027 -92.63598633 38.69091797 C-88.58660507 34.58099817 -84.52236972 30.48632157 -80.44743919 26.40173721 C-78.91030386 24.85611213 -77.37825513 23.30540904 -75.85173988 21.74929428 C-54.45515484 -0.03987966 -30.1430184 -10.95413375 0 0 Z " fill="#FEFEFE" transform="translate(966.3125,726.125)"/>
<path d="M0 0 C0.66 0.33 1.32 0.66 2 1 C-1.63 4.63 -5.26 8.26 -9 12 C-9 7.8407692 -6.75316432 5.85455565 -4 3 C-1.6875 1.125 -1.6875 1.125 0 0 Z " fill="#D9DADB" transform="translate(637,612)"/>
<path d="M0 0 C-0.66 1.32 -1.32 2.64 -2 4 C-2 3.34 -2 2.68 -2 2 C-3.155 2.33 -4.31 2.66 -5.5 3 C-9.77500587 4.08401934 -13.60361453 4.15701377 -18 4 C-18 3.67 -18 3.34 -18 3 C-15.56318413 2.49645133 -13.12564561 1.99703244 -10.6875 1.5 C-9.99720703 1.35691406 -9.30691406 1.21382812 -8.59570312 1.06640625 C-5.67475227 0.47374956 -2.98891878 0 0 0 Z " fill="#818689" transform="translate(1228,645)"/>
</svg>
